<?xml version="1.0" encoding="UTF-8" standalone="no"?>
<svg
   height="24"
   viewBox="0 0 24 24"
   width="24"
   fill="#ffffff"
   version="1.1"
   id="svg6"
   sodipodi:docname="e87d4d2dd504352d108f3483a0d6c844.svg"
   xmlns:inkscape="http://www.inkscape.org/namespaces/inkscape"
   xmlns:sodipodi="http://sodipodi.sourceforge.net/DTD/sodipodi-0.dtd"
   xmlns="http://www.w3.org/2000/svg"
   xmlns:svg="http://www.w3.org/2000/svg">
  <defs
     id="defs10" />
  <sodipodi:namedview
     id="namedview8"
     pagecolor="#ffffff"
     bordercolor="#666666"
     borderopacity="1.0"
     inkscape:pageshadow="2"
     inkscape:pageopacity="0.0"
     inkscape:pagecheckerboard="0" />
  <path
     d="M 0,0 H 24 V 24 H 0 Z"
     fill="none"
     id="path2" />
  <path
     d="M 6.76,4.84 4.96,3.05 3.55,4.46 5.34,6.25 Z M 4,10.5 H 1 v 2 H 4 Z M 13,0.55 H 11 V 3.5 h 2 z m 7.45,3.91 -1.41,-1.41 -1.79,1.79 1.41,1.41 z m -3.21,13.7 1.79,1.8 1.41,-1.41 -1.8,-1.79 z M 20,10.5 v 2 h 3 v -2 z m -8,-5 c -3.31,0 -6,2.69 -6,6 0,3.31 2.69,6 6,6 3.31,0 6,-2.69 6,-6 0,-3.31 -2.69,-6 -6,-6 z m -1,16.95 h 2 V 19.5 h -2 z m -7.45,-3.91 1.41,1.41 1.79,-1.8 -1.41,-1.41 z"
     id="path4" />
</svg>
